<svg width="100" height="94" fill="none" xmlns="http://www.w3.org/2000/svg"><path d="M100 88.1c-1.492 1.602-2.983 3.204-4.53 4.696-.828.828-1.988.718-2.707 0-.718-.718-.773-1.713-.11-2.652.11-.166.276-.331.497-.608-.276-.055-.552-.055-.773-.055H6.31c-1.602 0-2.32-.718-2.32-2.32V6.951a12.68 12.68 0 0 1-.94.608c-.828.497-1.767.386-2.43-.277C-.043 6.62-.264 5.57.4 4.907A85.451 85.451 0 0 1 4.874.433c.773-.719 1.712-.498 2.596.331 1.215 1.16 2.375 2.32 3.536 3.535.939.995 1.05 2.1.22 2.928-.773.829-1.822.829-2.872 0-.11-.11-.221-.165-.442-.386v78.608h2.32V41.366c0-2.099.608-2.707 2.652-2.707h11.324c1.713 0 2.43.719 2.43 2.431v13.479c0 1.27-.773 2.154-1.877 2.21-1.16.055-2.044-.83-2.044-2.155V42.636H14.21V85.45h8.508V71.64c0-1.492.773-2.376 1.988-2.32 1.216.055 1.878.883 1.878 2.32v13.81h3.923V53.797c0-1.99.607-2.652 2.596-2.652h11.214c1.933 0 2.596.608 2.596 2.541V85.45h3.867V64.845c0-2.1.608-2.762 2.707-2.707H64.59c1.99 0 2.597.608 2.597 2.651v20.716h3.867V72.579c0-1.934.718-2.597 2.651-2.597H85.03c1.767 0 2.486.663 2.486 2.486V85.56h5.579c-.166-.276-.332-.442-.497-.663-.663-.939-.608-1.933.11-2.651.774-.719 1.878-.829 2.707 0 1.547 1.546 2.983 3.148 4.53 4.695.055.387.055.774.055 1.16zm-57.064-2.54V55.175h-8.397V85.56h8.397zm20.329 0V66.113h-8.397V85.56h8.397zm11.932-11.657v11.6h8.396v-11.6h-8.396z" fill="#fff"/><path d="M78.125 51.033c.22-1.16.442-2.21.663-3.314.386-1.878 2.043-2.486 3.48-1.215 2.706 2.32 5.358 4.64 8.01 6.96 1.546 1.381 1.215 3.038-.774 3.701-3.314 1.16-6.629 2.265-9.943 3.425-1.934.663-3.204-.497-2.817-2.54.165-.995.331-2.045.552-3.15-1.657-.331-3.26-.607-4.861-.939-12.209-2.651-22.98-8.23-32.869-15.688-6.96-5.248-13.147-11.325-18.726-18.009-.884-1.05-.94-2.265-.056-3.038.884-.829 2.1-.663 3.039.497a113.02 113.02 0 0 0 12.429 12.76c8.396 7.293 17.622 13.259 28.173 17.07 4.42 1.602 8.949 2.818 13.7 3.48zm3.922.498c-.276 1.491-.553 2.817-.829 4.308a176.25 176.25 0 0 0 4.143-1.436c-1.105-.939-2.099-1.823-3.314-2.872zM18.464 15.9c-1.105 0-1.933-.884-1.933-1.989 0-1.05.884-1.878 1.933-1.933 1.105 0 1.989.829 1.989 1.933-.055 1.16-.884 1.99-1.989 1.99zm6.187 49.11c-1.05 0-1.933-.94-1.933-2.044a1.996 1.996 0 0 1 1.988-1.879c1.05 0 1.934.94 1.934 2.044-.055.995-.94 1.878-1.989 1.878z" fill="#fff"/></svg>