<svg width="100" height="101" fill="none" xmlns="http://www.w3.org/2000/svg"><path d="M1.446 100.162c-1.012-.536-1.429-1.37-1.37-2.561.06-2.799 0-5.598 0-8.396 0-1.608.715-2.323 2.323-2.323h3.513v-5.478H2.34c-1.548 0-2.262-.715-2.322-2.263v-8.814c0-1.488.774-2.262 2.322-2.262h3.812c.06 0 .06 0 .238-.06-4.347-3.87-6.61-8.634-6.372-14.351.238-5.777 2.858-10.421 7.622-13.756 7.265-5.121 17.448-3.752 23.403 3.096 5.776 6.73 6.015 17.806-2.263 25.07h11.97c1.607 0 2.322.715 2.322 2.323v7.086h3.514c1.607 0 2.322.715 2.322 2.323v8.694c0 1.548-.715 2.263-2.263 2.263h-3.573v5.419H96.13V21.735H80.766c-1.668 0-2.382-.714-2.382-2.381V3.93H29.792v6.61h20.663c1.608 0 2.56 1.132 2.144 2.501-.298.893-.953 1.37-1.906 1.43H12.94c-.357 0-.714 0-1.072-.12-.893-.297-1.488-1.19-1.31-2.143.12-.953.893-1.668 1.965-1.668h13.22V2.263C25.742.715 26.516 0 28.005 0c17.27 0 34.598 0 51.867.06.715 0 1.549.357 2.085.833 5.776 5.657 11.433 11.374 17.15 17.09.357.358.595.775.893 1.132v80.927c-32.692.12-65.623.12-98.554.12zm16.257-59.43c-7.503 0-13.696 6.252-13.637 13.696.06 7.503 6.313 13.696 13.756 13.637 7.503-.06 13.577-6.194 13.637-13.697-.06-7.443-6.312-13.636-13.756-13.636zm-7.92 55.5c.238-2.144.715-2.859 1.965-2.919 1.25 0 1.846.775 2.085 2.859h5.716c.298-2.144.774-2.859 1.965-2.859.417 0 1.072.12 1.25.417.477.715.715 1.549 1.132 2.442h5.479c.119-2.025.655-2.859 1.905-2.859.417 0 1.072.12 1.25.417.477.715.775 1.549 1.132 2.442h5.479v-5.36H4.066v5.36c1.966.06 3.812.06 5.717.06zm35.253-14.769H9.962v5.36h5.716c.298-2.323.715-3.097 1.966-3.037.416 0 1.072.119 1.25.416.477.775.774 1.668 1.132 2.62h5.478c.179-2.203.655-3.036 1.906-3.036.476 0 1.131.119 1.31.476.476.774.714 1.667 1.072 2.62h5.418c.178-2.322.714-3.096 1.965-3.096 1.25 0 1.786.714 2.084 3.096h5.717c.06-1.905.06-3.632.06-5.419zm-5.895-9.409H4.066v5.36h5.777v-1.608c.06-1.131.833-1.906 1.965-1.906 1.072 0 1.905.775 1.965 1.906.06.536 0 1.072 0 1.667h5.836c.178-2.739.595-3.573 1.965-3.573.476 0 1.131.18 1.31.477.476.893.715 1.905 1.072 3.037h5.538v-1.608c.06-1.131.893-1.906 1.965-1.906s1.906.775 1.965 1.906v1.608h5.836c-.12-1.787-.12-3.514-.12-5.36zM82.433 7.086v10.72h10.719L82.433 7.085z" fill="#fff"/><path d="M63.318 46.805c-.358.358-.655.596-.894.834a1353.205 1353.205 0 0 1-9.29 9.23c-.416.417-.893.774-1.429.953-.774.238-1.548 0-2.024-.774-.477-.715-.536-1.489 0-2.203.417-.596 1.012-1.132 1.488-1.668l10.005-10.004c1.608-1.608 2.441-1.608 4.109.06 1.667 1.726 3.334 3.453 5.002 5.12l13.1-13.1a49.37 49.37 0 0 0-1.19-.179c-.834-.178-1.549-.952-1.49-1.846 0-.893.418-1.607 1.31-1.846.596-.178 1.311-.178 1.907-.178 1.429 0 2.798-.06 4.228 0 1.607 0 2.381.774 2.381 2.441.06 1.608 0 3.275 0 4.883s-.774 2.501-1.965 2.501c-1.19 0-1.905-.833-2.024-2.382 0-.119-.06-.238-.06-.476a11.46 11.46 0 0 0-.834.774l-13.04 13.041c-1.668 1.668-2.502 1.668-4.17.06a426.657 426.657 0 0 0-5.12-5.24zm8.694 38.886h17.686c1.549 0 2.501 1.191 2.085 2.56-.239.894-1.013 1.37-2.144 1.37H54.445c-.417 0-.774 0-1.19-.06-.954-.237-1.55-1.19-1.37-2.202.178-1.013.952-1.608 2.084-1.668h18.044zM28.065 19.234h15.244c1.31 0 2.084.596 2.204 1.727.119 1.191-.655 2.144-1.906 2.204-1.489.06-2.918 0-4.407 0H13.237c-.596 0-1.25-.12-1.727-.417-.715-.417-.953-1.25-.715-2.084.298-.894.953-1.43 1.906-1.43h15.364zM23.658 31.74h-10.66c-1.488 0-2.381-.774-2.322-2.025 0-1.191.893-1.906 2.323-1.906h21.378c1.429 0 2.262.715 2.262 1.966 0 1.19-.833 1.965-2.262 1.965h-10.72zm65.981 37.099V79.08c0 1.37-.715 2.263-1.906 2.263-1.25.06-2.025-.834-2.025-2.203V58.656c0-1.43.774-2.323 1.965-2.263 1.191 0 1.906.893 1.906 2.322.06 3.395.06 6.789.06 10.124zm-7.802.059v10.183c0 1.43-.714 2.323-1.965 2.323-1.19 0-1.965-.834-1.965-2.263V58.715c0-1.429.774-2.322 1.965-2.322s1.965.893 1.965 2.322v10.183zm-15.661.536v9.588c0 1.488-.774 2.382-2.025 2.322-1.19 0-1.905-.893-1.905-2.322V59.668c0-1.489.774-2.382 2.024-2.322 1.191 0 1.906.893 1.906 2.322v9.766zm-11.731 2.561v-7.146c0-1.37.774-2.263 1.965-2.263 1.131 0 1.906.893 1.906 2.263v14.47c0 1.072-.656 1.906-1.608 2.025-.953.179-1.787-.298-2.144-1.131-.12-.298-.179-.715-.179-1.072.06-2.382.06-4.764.06-7.146zm19.532.893v6.253c0 1.429-.774 2.263-1.965 2.263s-1.906-.834-1.906-2.204V66.516c0-1.31.775-2.203 1.906-2.262 1.131 0 1.965.952 1.965 2.322v6.312zM56.112 23.105h-3.037c-1.19 0-2.144-.893-2.084-1.965 0-1.072.893-1.906 2.144-1.906h6.074c1.19 0 2.143.894 2.084 1.966 0 1.071-.893 1.905-2.144 1.905h-3.037zm31.561 28.941a1.944 1.944 0 0 1-1.965-1.965c0-1.013.894-1.906 1.906-1.965 1.072 0 1.965.893 1.965 2.024.06 1.072-.834 1.906-1.906 1.906zM50.991 29.715c.06-1.072 1.012-1.906 2.084-1.906 1.072.06 1.846.953 1.846 2.025-.06 1.072-.952 1.965-2.084 1.906-1.012-.06-1.905-1.013-1.846-2.025zm11.374 2.025c-1.072 0-2.025-.953-1.965-2.025.06-1.012.953-1.906 1.965-1.906 1.072 0 1.965.894 1.965 2.025-.06 1.012-.953 1.906-1.965 1.906zm-16.852-1.966c0 1.072-.834 1.906-1.906 1.966-1.072 0-2.024-.894-2.024-1.966 0-1.071.952-1.965 2.024-1.905 1.072 0 1.906.834 1.906 1.905zM58.851 14.53a1.881 1.881 0 0 1-1.905-1.906c0-1.071.833-2.024 1.965-1.965 1.012 0 1.905.894 1.965 1.906 0 1.012-.953 1.965-2.025 1.965zM23.956 50.021c0 1.489-.715 2.323-1.727 2.442-1.191.119-1.906-.477-2.144-1.787-.357-1.786-2.084-2.68-3.573-1.667-.476.298-1.012 1.012-1.012 1.489 0 .536.536 1.19 1.072 1.607.417.298 1.012.358 1.548.358 2.918.238 5.3 2.263 5.836 4.942.476 2.56-.953 5.062-3.692 6.313-.298.119-.536.416-.655.714-.357.834-.953 1.31-1.846 1.31-.953 0-1.489-.476-1.846-1.31a1.881 1.881 0 0 0-.834-.834c-2.084-1.012-3.394-2.62-3.513-5.002-.12-1.25.655-2.143 1.786-2.263 1.012-.119 1.846.596 2.144 1.846.357 1.608 1.667 2.382 3.216 1.846.833-.297 1.37-.893 1.429-1.786.06-.774-.655-1.548-1.549-1.787-.833-.178-1.667-.178-2.5-.416-2.502-.655-4.288-2.74-4.467-5.062-.178-2.62 1.132-4.704 3.633-5.895.297-.12.595-.477.714-.775.358-.833.953-1.31 1.846-1.31.953 0 1.489.536 1.906 1.31.179.358.536.656.893.894 1.906 1.131 3.156 2.739 3.335 4.823z" fill="#fff"/></svg>