<svg width="100" height="100" fill="none" xmlns="http://www.w3.org/2000/svg"><path d="M100 44.26c-1.105 3.04-3.757 4.807-6.023 6.907-.608.553-1.658.553-2.542.829-.497.166-1.05.276-1.381.608-3.868 3.813-7.68 7.625-11.493 11.438-.221.22-.387.442-.608.608 2.1 4.42-.332 8.73-5.029 9.338-.718 3.647-2.376 5.25-5.912 5.857-.22 2.32-1.326 4.144-3.536 5.194-2.155.995-4.2.718-6.244-.552-.276 1.657-1.105 2.928-2.21 3.978-.663.663-1.382 1.326-1.99 1.99-1.878 1.989-4.089 2.928-6.74 2.099-2.653-.829-4.035-2.818-4.31-5.25-1.327-.662-2.598-1.105-3.648-1.823-1.326-.884-1.989-2.265-2.21-3.868-.055-.22-.332-.608-.553-.663-3.15-.552-4.917-2.431-5.415-5.58 0-.111-.055-.166-.11-.277-2.984-.387-4.973-1.934-5.692-4.918-.165-.718-.22-1.492-.055-2.21.166-.718 0-1.16-.497-1.602a1232.773 1232.773 0 0 1-8.51-8.455l-.773-.773c-.055.387-.055.663-.055.94v9.945c0 1.492-.774 2.376-1.99 2.376-1.215 0-1.934-.884-1.934-2.32V54.04c0-1.216-.718-1.99-1.878-2.045-1.382-.11-2.597-.553-3.592-1.547-1.16-1.16-2.32-2.266-3.426-3.426-2.155-2.21-2.21-5.028-.055-7.239a3798.702 3798.702 0 0 1 21.108-21.107c2.1-2.1 4.918-2.1 7.073-.111 1.27 1.16 2.43 2.431 3.646 3.647.94.995 1.492 2.155 1.492 3.481 0 .497.166.718.663.884 3.758.995 7.515 2.045 11.273 3.095.331.11.828-.056 1.05-.277 1.768-1.713 3.812-2.541 6.243-2.486 3.316.055 6.631 0 9.947 0h1.105c-.442-2.21.386-3.868 1.934-5.25.884-.773 1.326-1.547 1.27-2.928-.165-4.531-.055-9.117-.055-13.648V3.978H14.464v15.915c0 .883-.277 1.712-1.16 1.933-.609.166-1.438.055-1.99-.276-.387-.221-.718-.94-.774-1.437a996.056 996.056 0 0 1 0-18.179c0-1.16.83-1.879 1.99-1.934h56.969c1.16 0 1.989.332 2.762 1.16a2201.05 2201.05 0 0 0 16.025 16.025c.773.773 1.16 1.547 1.105 2.652a315.527 315.527 0 0 0 0 10.222c0 .442.22.94.497 1.271a433.913 433.913 0 0 0 7.128 7.128c1.16 1.16 2.32 2.321 2.873 3.923.111.608.111 1.271.111 1.88zM49.717 69.623c.11.055.166.165.221.22 2.265.995 3.536 2.763 3.813 5.25 0 .221.11.442.276.608 1.823 1.823 3.592 3.647 5.47 5.415.94.884 2.266.773 3.04-.055.773-.83.773-2.045-.056-2.984-.497-.553-1.05-1.05-1.602-1.603l-7.184-7.183c-.607-.608-1.215-1.27-.884-2.155.221-.608.774-1.215 1.326-1.492.774-.387 1.548.055 2.155.663l8.344 8.344c1.382 1.381 2.652 1.547 3.647.553.995-.995.774-2.21-.553-3.592-2.818-2.818-5.636-5.581-8.399-8.399-.994-.995-.994-2.21-.165-3.04.829-.773 1.989-.717 2.928.222a43.767 43.767 0 0 1 2.266 2.265l6.465 6.465c1.05.995 2.32 1.05 3.205.166.884-.884.829-2.155-.166-3.205l-.276-.276-17.682-17.682c-.719-.718-1.658-.884-2.542-.442l-.829.497c-4.255 2.432-8.51 4.863-12.82 7.239-3.536 1.99-7.625.718-9.338-2.818-1.215-2.487-.607-5.415 1.603-7.68 3.757-3.758 7.515-7.46 11.272-11.218.221-.22.442-.497.774-.829-3.592-.994-7.018-1.878-10.444-2.873-.718-.221-1.105-.055-1.602.442-6.244 6.244-12.433 12.488-18.677 18.732-.166.166-.331.387-.442.442 4.697 4.642 9.338 9.283 14.035 13.98.995-.995 2.045-2.155 3.15-3.205 2.597-2.487 6.188-2.597 8.675-.221.608.553 1.05 1.27 1.547 1.934 2.376-1.381 4.807-1.492 7.073.11 2.652 1.99 3.26 4.531 2.376 7.405zM87.125 49.84c-.11-.11-.165-.221-.276-.276l-18.29-18.29c-.276-.276-.773-.442-1.16-.442-4.31-.055-8.565 0-12.875-.055-1.602 0-2.873.497-3.978 1.657-5.084 5.084-10.167 10.057-15.25 15.14-.277.277-.609.608-.83.94a2.506 2.506 0 0 0 .719 3.647c1.05.608 2.044.387 3.039-.166 4.53-2.542 9.062-5.139 13.593-7.68.442-.277.939-.553 1.436-.553a218.65 218.65 0 0 1 8.51 0c1.215 0 1.989.995 1.879 2.155-.111.994-.719 1.547-1.934 1.768 4.586 4.586 9.227 9.283 13.814 13.925 3.702-3.868 7.625-7.792 11.603-11.77zM73.81 20.942c-.332.166-.553.276-.774.442a110.08 110.08 0 0 0-3.592 3.592c-.497.552-.442 1.105.11 1.602l3.095 3.095L90.385 47.41c.774.773 1.216.829 1.99.055 1.105-1.05 2.155-2.155 3.26-3.26.663-.663.608-1.216-.056-1.824a43.767 43.767 0 0 1-2.265-2.265c-6.133-6.189-12.322-12.322-18.455-18.456-.387-.276-.719-.442-1.05-.718zm-42.713 4.863c-.166-.332-.277-.663-.498-.884-1.105-1.16-2.265-2.266-3.37-3.371-.608-.608-1.16-.608-1.769 0L4.573 42.437c-.663.663-.608 1.215.055 1.823 1.105 1.05 2.155 2.155 3.26 3.26.608.608 1.216.608 1.824 0 6.962-6.962 13.869-13.924 20.831-20.831.166-.221.332-.553.553-.884zm5.36 51.498c.607-.386 1.215-.663 1.712-1.105 1.327-1.215 2.598-2.542 3.868-3.868 1.105-1.105 2.266-2.21 3.371-3.37 1.27-1.382.663-3.371-1.05-3.758-.94-.22-1.713.276-2.32.884l-6.908 6.907c-.276.277-.607.553-.663.83-.11.718-.22 1.491-.055 2.099.331.829 1.05 1.16 2.044 1.381zm35.916-60.229h10.001c-3.315-3.37-6.686-6.686-10.001-10.056v10.056zm-30.17 66.252c.774-.442 1.437-.718 1.879-1.16 1.657-1.547 3.26-3.205 4.807-4.807 1.05-1.106 1.16-2.487.276-3.371-.884-.94-2.265-.829-3.37.22l-4.807 4.808a5.868 5.868 0 0 0-.553.663c-.497.719-.553 1.547-.055 2.21.442.553 1.16.94 1.823 1.437zm-7.294-20.942c-.663.276-1.215.387-1.547.663-1.602 1.492-3.205 3.04-4.697 4.642-.718.773-.607 1.989.11 2.763.72.773 1.935 1.05 2.708.331A59.7 59.7 0 0 0 36.4 65.81c.387-.442.332-1.492.056-2.044-.166-.553-.995-.94-1.548-1.382zm18.677 21.44c-.11-1.05-.608-1.713-1.437-2.1-.773-.387-1.602-.332-2.265.276-1.05.94-2.045 1.99-3.04 2.984-1.05 1.105-1.105 2.376-.22 3.26.884.94 2.21.884 3.315-.166a40.775 40.775 0 0 0 2.652-2.707c.442-.387.663-.995.995-1.547zm26.633-62.716a456.244 456.244 0 0 0 5.305 5.194v-5.194h-5.305z" fill="#fff"/><path d="M11.977 99.903c-1.05-.553-1.381-1.437-1.381-2.652.055-3.979 0-7.957 0-11.88 0-1.105.663-1.88 1.602-2.045.995-.166 1.879.332 2.21 1.216.11.331.11.773.11 1.16V95.98h63.27V85.039c0-1.05.662-1.768 1.657-1.99.829-.165 1.768.388 2.1 1.216.11.332.11.774.11 1.16v10.5h3.923V64.981c0-1.713 1.271-2.763 2.708-2.155.884.387 1.215 1.105 1.215 2.045v17.682c0 4.917-.055 9.835 0 14.753 0 1.216-.331 2.1-1.381 2.652-25.363-.055-50.78-.055-76.143-.055zm40.005-87.139c0 .774.055 1.547 0 2.32-.055 1.327-.884 2.1-2.044 2.1-1.105 0-1.879-.828-1.879-2.154a60.443 60.443 0 0 1 0-4.476c.055-1.382.774-2.21 1.934-2.21 1.216 0 1.99.828 1.99 2.265v2.155zm-8.177 4.642c0 1.657-1.769 2.707-2.929 1.768-1.27-.995-2.431-2.266-3.536-3.481-.663-.719-.442-1.603.165-2.321.553-.663 1.658-.94 2.266-.442 1.326 1.16 2.542 2.486 3.757 3.757.221.221.221.608.277.719zm19.56-2.984c-.387.718-.608 1.27-.995 1.658-.828.939-1.768 1.823-2.652 2.707-.995.94-2.155.94-2.928.11-.774-.773-.719-1.933.165-2.873.94-.994 1.934-1.934 2.874-2.873.607-.553 1.381-.718 2.044-.332.608.387.94.995 1.492 1.603z" fill="#fff"/><path d="M79.776 75.314c1.105 0 1.934.94 1.934 2.045a1.997 1.997 0 0 1-1.989 1.878c-1.105 0-1.934-.94-1.934-2.044 0-1.05.884-1.879 1.99-1.879zm-67.136 0a1.96 1.96 0 0 1 1.879 1.99c0 1.104-.94 1.989-2.045 1.933a1.997 1.997 0 0 1-1.878-1.989 2.018 2.018 0 0 1 2.044-1.934zm79.845-32.712c-.055 1.05-.994 1.88-1.989 1.824-1.05-.055-1.99-1.105-1.879-2.1a1.944 1.944 0 0 1 2.155-1.768c.995.055 1.768.94 1.713 2.044zm-84.818-.11c0-1.05.774-1.934 1.879-1.934a1.948 1.948 0 0 1 2.044 1.934c0 .995-.994 1.99-1.989 1.99-1.05-.056-1.934-.94-1.934-1.99z" fill="#fff"/></svg>