<svg width="100" height="101" fill="none" xmlns="http://www.w3.org/2000/svg"><path d="M100 41.634c-.595 1.07-1.487 1.368-2.676 1.368-12.61-.06-25.218 0-37.827 0-1.785 0-2.439-.655-2.439-2.44V2.618c0-1.19.357-2.022 1.368-2.558h3.688l.713.179c2.141.357 4.402.595 6.483 1.19 8.565 2.2 15.643 6.78 21.233 13.56 4.402 5.293 7.376 11.36 8.625 18.2.297 1.606.535 3.212.773 4.758.06 1.19.06 2.439.06 3.688zM61.043 4.104v34.913h34.853C95.361 21.412 80.611 4.996 61.043 4.104zM100 53.35c-.357 2.201-.595 4.342-1.011 6.543-1.309 6.959-4.163 13.263-8.208 19.092-.714 1.01-1.784 1.249-2.736.595-.951-.595-1.19-1.666-.595-2.736.952-1.606 1.963-3.153 2.915-4.758a44.884 44.884 0 0 0 5.353-16.951c.178-1.547.238-3.034.357-4.58.119-1.487.475-2.2 1.486-2.439.952-.237 1.606.12 2.439 1.309v3.925zM50.635 0c.119.119.238.178.357.297.832.595 1.19 1.428.892 2.26-.298.893-.952 1.368-1.904 1.368-.892 0-1.724-.594-1.903-1.427-.178-.952.06-1.725.892-2.26.12-.06.298-.179.417-.238h1.249z" fill="#fff"/><path d="M52.003 48.057h34.853c2.022 0 2.676.654 2.617 2.676-.178 8.208-2.617 15.702-7.494 22.364-6.126 8.386-14.274 13.62-24.445 15.642-9.695 1.903-18.854.297-27.419-4.699C22.681 79.7 17.21 73.454 13.76 65.603c-2.676-6.067-3.628-12.43-3.033-19.033.714-8.03 3.628-15.226 8.743-21.411 6.186-7.554 14.096-12.253 23.731-13.977 2.082-.357 4.282-.476 6.424-.595 1.665-.12 2.379.714 2.379 2.379v35.091zm33.366 3.925H50.516c-.952 0-1.665-.297-2.32-.951-6.066-6.126-12.192-12.193-18.26-18.319-2.08-2.082-4.222-4.223-6.304-6.304-10.348 11.42-12.43 29.143-3.152 43.18C29.342 82.91 45.4 88.56 60.508 83.92c15.999-4.936 24.564-19.508 24.861-31.939zM26.606 23.374c7.197 7.197 14.334 14.394 21.412 21.471V14.631c-8.208.476-15.405 3.45-21.412 8.743z" fill="#fff"/><path d="M50.278 100.158C28.033 100.1 8.585 85.765 2.102 64.413.079 57.811-.456 51.09.377 44.251 1.387 35.329 4.6 27.3 9.953 20.103 15.068 13.144 21.669 7.97 29.52 4.401c1.19-.535 2.32-.178 2.855.833.476 1.011.06 2.082-1.13 2.736-2.26 1.249-4.639 2.379-6.78 3.806-9.814 6.662-16.416 15.762-19.033 27.3C1.566 55.908 5.85 70.6 17.982 82.91c6.84 6.9 15.226 10.944 24.802 12.55 5.65.951 11.3.714 16.95-.476a45.884 45.884 0 0 0 15.464-6.423c.655-.417 1.25-.833 1.904-1.19 1.01-.535 2.081-.238 2.676.595.535.892.357 2.022-.535 2.676-1.19.833-2.439 1.666-3.688 2.38-5.353 3.152-11.063 5.233-17.189 6.244-2.736.476-5.412.595-8.088.892zM41.594 2.379c.06-1.13.952-1.963 2.022-1.903 1.07.06 1.963 1.01 1.903 2.022-.059 1.07-.951 1.903-2.081 1.903-1.13-.06-1.903-.951-1.844-2.022zM84 82.018c1.071 0 1.964.952 1.964 2.022-.06 1.07-.952 1.963-2.023 1.904-1.07 0-1.903-.893-1.903-1.963s.833-1.963 1.963-1.963zM37.015 5.71c-1.071 0-1.963-.892-1.963-2.022 0-1.012.951-1.904 1.963-1.904 1.07 0 1.962.892 1.962 2.022 0 1.071-.892 1.904-1.962 1.904z" fill="#fff"/><path d="M57.236 78.45c-1.01 0-1.784-.655-2.022-1.606-.178-.892.238-1.785 1.19-2.201 1.546-.654 3.152-1.13 4.698-1.844 4.877-2.32 8.565-5.888 11.182-10.587.357-.594.654-1.308 1.011-1.903.595-1.011 1.665-1.308 2.617-.833.952.476 1.368 1.606.892 2.677-1.427 3.033-3.212 5.77-5.531 8.208-3.688 3.806-8.089 6.423-13.204 7.91-.297.06-.595.119-.833.178zm-7.136.892c-1.13 0-2.023-.833-2.023-1.963 0-1.07.952-1.963 2.022-1.963 1.07 0 2.023.952 2.023 1.963 0 1.07-.952 1.963-2.023 1.963z" fill="#fff"/></svg>