<svg width="153" height="54" fill="none" xmlns="http://www.w3.org/2000/svg"><path d="M89.252 12.4v1.89h4.176V25h2.052V14.29h4.158V12.4H89.252zm9.29 8.28c0 2.988 2.269 4.554 4.681 4.554 2.43 0 4.68-1.566 4.68-4.554 0-2.988-2.25-4.554-4.68-4.554-2.412 0-4.68 1.566-4.68 4.554zm7.399 0c0 1.692-1.116 2.79-2.718 2.79-1.62 0-2.736-1.098-2.736-2.79s1.116-2.79 2.736-2.79c1.602 0 2.718 1.098 2.718 2.79zm5.755 4.32v-6.948h4.32V25h1.926v-8.64h-8.172V25h1.926zm8.26-12.006v1.998c.882-.63 2.16-.918 3.294-.918 2.286 0 4.5 1.026 4.86 3.708h-6.138v1.836h6.175c-.306 2.754-2.61 3.708-4.932 3.708-1.189 0-2.359-.306-3.259-.99v2.07a8.109 8.109 0 0 0 3.565.828c3.312 0 6.696-1.926 6.696-6.39 0-4.59-3.367-6.678-6.66-6.678-1.279 0-2.538.288-3.6.828zM134.021 25v-3.582h1.386L138.25 25h2.214l-3.474-4.356 3.132-4.284h-2.196l-2.484 3.42h-1.422v-3.42h-1.926V25h1.926zm6.727-4.32c0 2.988 2.268 4.554 4.68 4.554 2.43 0 4.68-1.566 4.68-4.554 0-2.988-2.25-4.554-4.68-4.554-2.412 0-4.68 1.566-4.68 4.554zm7.398 0c0 1.692-1.116 2.79-2.718 2.79-1.62 0-2.736-1.098-2.736-2.79s1.116-2.79 2.736-2.79c1.602 0 2.718 1.098 2.718 2.79zM103.472 40.7c0-4.356-3.528-6.534-6.822-6.534-3.312 0-6.84 2.178-6.84 6.534s3.528 6.534 6.84 6.534c3.294 0 6.822-2.178 6.822-6.534zm-4.068 3.042v-1.314c-.612.324-1.35.558-2.106.558-1.206 0-2.466-.522-2.466-2.232 0-1.782 1.314-2.34 2.556-2.34a3.87 3.87 0 0 1 2.016.576v-1.332c-.648-.414-1.422-.612-2.304-.612-1.89 0-3.888 1.116-3.888 3.798 0 2.448 1.998 3.51 3.672 3.51 1.044 0 1.746-.216 2.52-.612zM90.53 40.7c0-3.906 3.132-5.85 6.12-5.85s6.12 1.944 6.12 5.85c0 3.888-3.132 5.85-6.12 5.85s-6.12-1.962-6.12-5.85zm19.17-4.932v1.98c1.296-.936 2.646-1.368 3.888-1.368 1.512 0 2.43.558 2.43 1.62 0 1.386-1.242 2.016-2.664 2.844-1.854 1.098-4.068 2.232-4.068 5.22V47h8.874v-1.854l-6.57.018c.018-1.224 1.512-1.98 3.096-2.916 1.656-.99 3.384-2.214 3.384-4.284 0-2.286-1.818-3.438-4.302-3.438-1.422 0-2.808.378-4.068 1.242zm10.205 5.112c0 3.582 1.692 6.354 5.49 6.354s5.49-2.772 5.49-6.354c0-3.582-1.692-6.354-5.49-6.354s-5.49 2.772-5.49 6.354zm8.91 0c0 2.844-1.08 4.482-3.42 4.482-2.358 0-3.42-1.638-3.42-4.482 0-2.844 1.062-4.482 3.42-4.482 2.34 0 3.42 1.638 3.42 4.482zm6.841-6.12l-2.97 1.134v1.89l2.448-.918v8.28h-2.448V47h6.66v-1.854h-2.178V34.76h-1.512zm5.352 3.042c0 1.224.666 2.034 1.566 2.61-1.296.792-1.998 2.034-1.998 3.204 0 1.872 1.602 3.618 5.094 3.618 3.546 0 5.004-1.692 5.004-3.438 0-1.458-.9-2.322-2.052-2.898 1.098-.774 1.638-1.818 1.62-2.97-.036-1.728-1.692-3.402-4.644-3.402-3.222 0-4.59 1.674-4.59 3.276zm4.806 3.906c1.476.468 2.79.828 2.79 2.16 0 .972-1.206 1.62-2.844 1.62-2.106 0-3.132-.846-3.15-2.106 0-.774.45-1.656 1.44-2.25.612.234 1.224.414 1.764.576zm2.412-3.528c0 .72-.396 1.512-1.188 2.124-.468-.144-.918-.27-1.314-.378-1.314-.414-2.718-.774-2.718-2.142 0-.828.918-1.512 2.502-1.512 1.782 0 2.718.864 2.718 1.908z" fill="#fff"/><path fill-rule="evenodd" clip-rule="evenodd" d="M22.969 14.267L0 54h81L49.784 0 32.253 30.326l-9.284-16.06z" fill="#fff"/></svg>