<svg width="67" height="61" fill="none" xmlns="http://www.w3.org/2000/svg"><path d="M64.88 22.512c-.47-.363-1.06-.605-1.648-.847C59.464 8.835 47.807 0 34.854 0 18.487 0 5.181 13.677 5.181 30.5c0 1.21.118 2.42.236 3.63a19.488 19.488 0 0 0-5.182 8.715L0 43.572l.706-.243c.471-.12.942-.363 1.414-.484 1.648-.605 3.414-1.21 4.945-1.694C11.422 53.01 22.49 61 34.855 61c16.367 0 29.672-13.676 29.672-30.5 0-.847 0-1.816-.118-2.663 1.296-.484 2.12-.968 2.355-1.694l.118-.121V25.9c0-.121.118-.242.118-.484 0-.969-.707-2.058-2.12-2.905zM23.198 15.37l-.118-1.09-.118-.362-.353-.848-.236-.242-.706-.968-.236-.242-.706-.968-.236-.363s-.235-.363-.235-.606c.589-1.573 5.417-2.3 11.422-2.3 3.886 0 8.125.243 12.128.848 3.886.605 7.418 1.332 9.773 2.3 1.649.726 2.591 1.452 2.591 2.3-.353.847-.942 1.452-1.413 2.057-.824.968-1.53 1.936-2.002 3.389-9.184-1.816-19.782-2.542-29.437-2.179h-.118c.025-.165.064-.327.118-.484l-.118-.242zm3.415 10.65c.235-.483.47-.725.824-1.088a4.79 4.79 0 0 1 2.473-1.359 4.708 4.708 0 0 1 2.79.283 4.86 4.86 0 0 1 2.167 1.828c.53.816.814 1.776.814 2.758 0 .981-.283 1.94-.814 2.757a4.86 4.86 0 0 1-2.167 1.828 4.707 4.707 0 0 1-2.79.283 4.79 4.79 0 0 1-2.473-1.359c-1.06-1.089-1.649-2.783-1.295-4.357l.117-.484c.082-.374.2-.74.354-1.09zm-4.122-2.42c-.353.726-.588 1.816-.706 2.663-1.53-.363-3.062-.605-4.357-.968-4.828-1.332-7.89-2.663-8.007-3.873 3.062-.727 8.36-1.09 14.719-.969-.707.848-1.295 2.058-1.649 3.147zm-.235 10.409c-4.71 0-8.596.968-11.893 2.42-3.297 1.453-6.005 3.51-8.713 5.689-.236.121-.471.121-.59.242 1.104-3.59 3.29-6.727 6.242-8.956 3.414-2.663 8.242-4.72 14.718-6.052h.354v-.968c.47 0 1.06 0 1.53.121.471.121.942.242 1.414.605-.354 1.937.117 3.873 1.53 5.326 2.12 2.178 5.77 2.178 7.89 0 2.119-2.179 2.119-5.93 0-8.11-2.12-2.178-5.535-2.178-7.772-.12-.589-.243-1.295-.485-1.884-.727-.589-.12-1.178-.12-1.766-.12.47-1.09.942-2.058 1.53-2.905 4.357.12 9.185.363 14.013.726.589 0 1.177.12 1.648.12-.47 2.18-.942 4.237-1.648 6.294-.707 1.937-1.413 3.752-2.237 5.205-.471.847-1.06 1.573-1.649 2.42-.589.727-1.178 1.574-1.884 2.3-3.18 2.905-7.065 3.388-10.95 2.663-.119-.121-.236-.364-.354-.484l-.354-.727v-.242h-.235a.422.422 0 0 1-.353-.12h-.354c-.235 0-.47-.122-.706-.122h-3.768c-.28-.011-.559.03-.824.121h-.354c-.235 0-.588.121-.824.121h-.353c-.236 0-.589.121-.824.121l-.354.121a.871.871 0 0 0-.47.121h-.236l-.353.122c-.236 0-.471.12-.707.12h-.353c-.236 0-.471.122-.589.122l-.353.12c-.236 0-.354.122-.589.122l-.47.242a.887.887 0 0 0-.59.242l-.353.12c-1.177.364-2.237.727-3.415 1.09 2.12-1.573 4.24-3.026 6.83-4.236 3.18-1.453 6.947-2.42 11.54-2.42.235 0 .353-.122.353-.364-.118-.242-.236-.363-.471-.363zM41.8 26.264c.236.12.354 0 .471-.121.354-.605.471-1.21.707-2.058.118-.726.235-1.573.353-2.541.471 0 .824.12 1.295.12-.942 7.02-2.12 14.282-7.065 19.97-1.295 1.574-2.826 2.664-4.474 3.51-2.12.97-5.299 1.453-7.654.97-.942-.243-1.53-.727-1.884-1.211-.24-.4-.363-.862-.353-1.331a9.077 9.077 0 0 0 3.297.605c1.06-.121 2.002-.364 3.415-.969.235-.12.235-.242.235-.484-.118-.242-.235-.242-.471-.242-1.295.484-2.237.848-3.18.848-.941 0-2.001-.122-3.414-.606-.471-.242-.824-.605-.942-.968a1.37 1.37 0 0 1 0-.968c4.71.968 8.596 0 11.657-2.784.236-.121.354-.363.59-.484a20.461 20.461 0 0 0 3.178-4.357v-.726l.118-.121.118-.243.118-.12c.118-.122.118-.243.235-.485.471-1.09 1.06-2.42 1.413-3.752.65-1.987 1.2-4.007 1.649-6.051l.118-.363c.47 0 .824.12 1.295.12a38.259 38.259 0 0 1-.353 2.421c-.118.726-.354 1.332-.59 1.937-.117.12-.117.363.118.484zm4.828 22.633l.236 3.147-13.189 8.109h-.117l.353-.363c2.59-3.147 5.299-6.173 7.654-9.562 1.06-1.573 2.12-3.026 3.18-4.72l.117-.121v-.363l.118-.121.118-.121a69.638 69.638 0 0 0 2.472-4.358c.236-.363.471-.726.59-1.21l.588 1.816.235.968 1.884 6.293-4.003.121h-.354l.118.485zm-22.372 4.962l-.236-1.573 2.708-2.058-.824 5.326-.47 2.904c-.119 0-.236-.12-.472-.12l-.706-4.479zm0 4.236c-.942-.363-1.767-.847-2.709-1.21l2.12-2.057.589 3.267zm2.355-2.3l.588-.483.354.726-.707 2.905c-.235-.121-.47-.121-.706-.243l.47-2.904zm.117-.968l.471-2.783c.118.12.236.363.354.484.235.363.588.605.942.968l-1.767 1.331zm3.062 1.574l.706-1.332 3.886 2.905c-.47.484-.824.968-1.295 1.452-.236.242-.353.484-.589.606-.824-.121-1.53-.121-2.355-.242l-.353-3.39zm.235-2.663c1.178-.12 2.238-.363 3.297-.605 2.944-.847 5.417-2.179 7.536-4.115a22.864 22.864 0 0 0 1.767-1.694c-.59.847-1.06 1.694-1.649 2.42s-1.177 1.574-1.766 2.3c-1.295 1.694-2.708 3.389-4.121 5.083h-.354l-4.71-3.389zm17.898-23.722c-.353 2.541-.353 4.962 0 8.23-1.295 2.42-2.59 4.72-4.12 6.657-1.178 1.452-2.356 2.784-3.769 3.994-2.002 1.573-4.239 2.905-6.83 3.63-1.31.37-2.65.613-4.003.727l-1.06-1.09a6.628 6.628 0 0 1-.824-1.089c0-.242.118-.363.118-.605.235-1.09.353-2.178.235-3.268h1.296c.353 0 .588 0 .824-.12h.353c.236 0 .589-.122.825-.122l.353-.121c.235-.121.589-.121.824-.242l.353-.121.707-.363.353-.121.707-.363.353-.242c.235-.122.47-.364.706-.485l.354-.242c.235-.12.353-.363.588-.484l.354-.363c.235-.121.353-.363.588-.484l.354-.363c.235-.242.353-.363.47-.605l.354-.484c.236-.242.353-.485.589-.727l.353-.484c2.473-3.51 4.357-8.472 5.417-14.523.235-1.332.47-2.663.588-4.116 1.531.121 3.062.364 4.475.606-.825 2.541-1.531 4.962-1.885 7.383zM35.09 60.153l12.363-7.625.236-.121v-.242l-.236-2.905 4.004-.121h.47l-.117-.605-1.648-5.447 7.3 5.81c-5.18 6.778-13.306 11.135-22.372 11.256zm22.49-31.71c-2.472.241-5.416.363-8.713.363.353-1.937 1.06-3.994 1.766-6.415 6.712.968 12.364 2.179 15.308 3.63-.59 1.09-3.65 1.937-8.36 2.421zm-6.594-6.778l-.353-.121c-3.65-.727-7.771-.968-11.54-1.21-12.01-.969-24.02-1.09-29.555.242.589-1.574 3.65-2.542 7.654-3.147 1.648-.242 3.415-.363 5.181-.484h.235c10.716-.485 24.963.484 36.385 3.752 2.238.726 4.122 1.452 5.417 2.3 1.06.725 1.766 1.451 1.766 2.178-2.944-1.332-8.595-2.542-15.19-3.51z" fill="#fff"/><path d="M29.79 29.048c.707 0 1.06-.242 1.178-.727.471.121 1.295.121 1.649.364-.354.726-2.473.968-3.18.968-.235 0-.353.12-.353.363 0 .242.118.363.354.363.942 0 3.885-.363 3.885-1.695v-.12c0-.848-.47-1.453-1.06-1.937-.706-.484-1.648-.726-2.708-.968-.235 0-.353.12-.353.363 0 .242.118.363.353.363.942.121 1.766.363 2.355.726.236.242.471.484.589.726-.235 0-.353-.12-.589-.12a15.421 15.421 0 0 0-2.59-.364c-.825 0-.707 1.695.47 1.695z" fill="#fff"/></svg>