<svg width="182" height="54" fill="none" xmlns="http://www.w3.org/2000/svg"><path d="M82.234 19.4v2.43h3.87V32h2.682V21.83h3.87V19.4H82.234zm15.408 6.3c0 3.42 2.232 6.552 6.696 6.552 4.464 0 6.696-3.132 6.696-6.552 0-3.42-2.232-6.552-6.696-6.552-4.464 0-6.696 3.132-6.696 6.552zm10.62 0c0 2.214-1.314 4.05-3.924 4.05-2.628 0-3.942-1.836-3.942-4.05 0-2.214 1.314-4.05 3.942-4.05 2.61 0 3.924 1.836 3.924 4.05zm11.977 6.3V21.83h5.58V32h2.682V19.4h-10.962V32h2.7zm14.919-12.042v2.574c.846-.648 2.124-.954 3.222-.954 2.052.018 3.942.72 4.374 2.952h-5.634v2.322h5.688c-.378 2.286-2.394 2.97-4.482 2.97-1.152 0-2.322-.306-3.168-1.044v2.664c1.08.522 2.322.81 3.564.81 3.384 0 6.804-1.908 6.804-6.39 0-4.68-3.402-6.714-6.732-6.714-1.278 0-2.556.27-3.636.81zM154.745 32v-5.148h2.034L160.217 32h2.988l-4.32-6.462 4.086-6.138h-3.006l-3.186 5.004h-2.034V19.4h-2.7V32h2.7zm12.928-6.3c0 3.42 2.232 6.552 6.696 6.552 4.464 0 6.696-3.132 6.696-6.552 0-3.42-2.232-6.552-6.696-6.552-4.464 0-6.696 3.132-6.696 6.552zm10.62 0c0 2.214-1.314 4.05-3.924 4.05-2.628 0-3.942-1.836-3.942-4.05 0-2.214 1.314-4.05 3.942-4.05 2.61 0 3.924 1.836 3.924 4.05zM22.97 14.266L0 54h81L49.784 0l-17.53 30.326-9.285-16.06z" fill="#fff"/></svg>