<svg width="95" height="95" fill="none" xmlns="http://www.w3.org/2000/svg"><path d="M93.516 89.063H7.422c-.89 0-1.484-.594-1.484-1.485V1.484C5.938.594 6.53 0 7.421 0c.89 0 1.484.594 1.484 1.484v84.61h84.61c.89 0 1.484.594 1.484 1.484s-.594 1.484-1.484 1.484z" fill="#fff"/><path d="M87.578 95c-.445 0-.742-.149-1.039-.445-.594-.594-.594-1.485 0-2.079l4.899-4.898-4.899-4.898c-.594-.594-.594-1.485 0-2.078.594-.594 1.484-.594 2.078 0l5.938 5.937c.593.594.593 1.484 0 2.078l-5.938 5.938c-.297.296-.594.445-1.039.445zM13.36 8.906c-.446 0-.743-.148-1.04-.445L7.422 3.562l-4.899 4.9c-.593.594-1.484.594-2.078 0-.593-.594-.593-1.484 0-2.078L6.383.445c.594-.593 1.484-.593 2.078 0l5.937 5.938c.594.594.594 1.484 0 2.078-.296.297-.593.445-1.039.445zM7.422 89.062c-.149 0-.445 0-.594-.148-.742-.297-1.039-1.188-.594-1.93L24.047 51.36c.148-.445.594-.742 1.187-.742.446 0 1.04.149 1.336.445l4.75 5.344 13.063-23.898c.297-.446.742-.742 1.187-.742.446 0 1.04.148 1.336.593l5.492 7.125L67.54 23.008a1.59 1.59 0 0 1 2.078-.149 1.59 1.59 0 0 1 .149 2.078L53.438 42.75c-.743.148-1.04.297-1.485.297-.445 0-.89-.297-1.187-.594l-5.047-6.68-13.063 23.75c-.297.446-.593.743-1.187.743-.446 0-.89-.149-1.336-.446l-4.602-5.195L8.758 88.172c-.297.594-.742.89-1.336.89z" fill="#fff"/><path d="M7.422 89.063c-.297 0-.742-.149-1.04-.446a1.59 1.59 0 0 1-.148-2.078l19.297-20.781a1.603 1.603 0 0 1 1.04-.445c.445 0 .741.148 1.038.445l4.75 5.344 13.063-23.899c.297-.445.594-.742 1.039-.742.445 0 .89.149 1.336.445l8.312 8.758 33.102-38.89c.594-.594 1.484-.743 2.078-.149.594.594.742 1.484.148 2.078l-34.14 40.078c0 .446-.445.594-.89.594-.446 0-.891-.148-1.188-.445l-8.016-8.61-13.062 24.047c-.297.446-.594.742-1.188.742-.445 0-.89-.148-1.336-.445l-4.898-5.64L8.46 88.616c-.297.297-.594.446-1.04.446z" fill="#fff"/><path d="M90.547 28.203c-.89 0-1.485-.594-1.485-1.484v-7.422h-7.421c-.891 0-1.485-.594-1.485-1.485 0-.89.594-1.484 1.485-1.484h8.906c.89 0 1.484.594 1.484 1.484v8.907c0 .89-.594 1.484-1.484 1.484zM68.281 34.14c-.89 0-1.484-.593-1.484-1.484v-7.422h-7.422c-.89 0-1.484-.593-1.484-1.484 0-.89.593-1.484 1.484-1.484h8.906c.89 0 1.485.593 1.485 1.484v8.906c0 .89-.594 1.485-1.485 1.485zM7.422 89.063c-.594 0-1.188-.446-1.485-1.04-.148-.742.297-1.632 1.04-1.78l36.664-9.65 10.093-10.687c.594-.594 1.336-.594 1.93-.148l12.766 9.797 7.273-31.172c.148-.594.594-.89 1.039-1.04.594-.148 1.04 0 1.484.446l13.211 13.36c.594.593.594 1.484 0 2.078-.593.593-1.484.593-2.078 0L78.078 47.5l-7.125 30.727c-.148.445-.445.89-.89 1.039-.446.148-1.04.148-1.337-.149L55.22 68.727l-9.5 10.093c-.149.149-.446.297-.743.446l-37.11 9.797h-.445z" fill="#fff"/><path d="M90.547 59.375H81.64c-.891 0-1.485-.594-1.485-1.484 0-.891.594-1.485 1.485-1.485h7.421v-7.422c0-.89.594-1.484 1.485-1.484.89 0 1.484.594 1.484 1.484v8.907c0 .89-.594 1.484-1.484 1.484zM13.36 48.984c-.446 0-.743-.148-1.04-.445-.148-.148-.297-.297-.297-.445-.148-.149-.148-.446-.148-.594 0-.445.148-.742.445-1.04.297-.296.89-.444 1.336-.444.149 0 .149 0 .297.148.149 0 .149.148.297.148l.148.149c.297.297.446.594.446 1.039 0 .148 0 .445-.149.594-.148.148-.148.297-.297.445-.148 0-.148.148-.148.148-.148 0-.148.149-.297.149-.148 0-.148 0-.297.148h-.297zm5.937 0c-.445 0-.742-.148-1.04-.445-.296-.297-.444-.594-.444-1.04v-.296c0-.148 0-.148.148-.297 0-.148.148-.148.148-.297 0-.148.149-.148.149-.148.148-.149.297-.297.445-.297.594-.148 1.188-.148 1.633.297l.148.148c0 .149.149.149.149.297 0 .149 0 .149.148.297v.297c0 .445-.148.742-.445 1.039-.297.297-.594.445-1.04.445zm-5.937 5.938c-.446 0-.743-.149-1.04-.445-.297-.297-.445-.594-.445-1.04 0-.148 0-.445.148-.593.149-.149.149-.297.297-.446.594-.593 1.485-.593 2.078 0 .149.149.297.297.297.446 0 .148.149.297.149.593 0 .446-.149.743-.446 1.04-.148 0-.148.148-.148.148-.148 0-.148.148-.297.148-.148 0-.148 0-.297.149h-.297zm0-11.875c-.446 0-.743-.149-1.04-.445-.297-.297-.445-.594-.445-1.04 0-.445.148-.742.445-1.039.594-.593 1.485-.593 2.078 0 .297.297.446.594.446 1.04v.296c0 .149 0 .149-.149.297 0 .149-.148.149-.148.297l-.149.149c-.296.296-.593.445-1.039.445zm5.937 0c-.149 0-.445 0-.594-.149-.148-.148-.297-.148-.445-.297-.297-.296-.445-.593-.445-1.039 0-.148 0-.445.148-.593.148-.149.148-.297.297-.446.148-.148.297-.297.445-.297.594-.148 1.188-.148 1.633.297.148.149.297.297.297.446 0 .148.148.297.148.593 0 .446-.148.743-.445 1.04-.297.296-.594.445-1.04.445zM13.36 37.11c-.446 0-.743-.15-1.04-.446-.148-.148-.297-.297-.297-.445-.148-.149-.148-.446-.148-.594 0-.445.148-.742.445-1.04.594-.593 1.485-.593 2.078 0 .297.298.446.595.446 1.04 0 .148 0 .445-.149.594-.148.148-.148.297-.297.445-.148 0-.148.148-.148.148-.148 0-.148.149-.297.149-.148 0-.148 0-.297.148h-.297zm5.937 0c-.149 0-.445 0-.594-.15-.148-.148-.297-.148-.445-.296-.149-.148-.297-.297-.297-.445 0-.149-.148-.297-.148-.594 0-.445.148-.742.445-1.04.148-.148.297-.296.445-.296.594-.297 1.188-.148 1.633.297.297.297.445.594.445 1.039 0 .445-.148.742-.445 1.039-.297.297-.594.445-1.04.445zm-5.937-5.938c-.446 0-.743-.149-1.04-.445-.297-.297-.445-.594-.445-1.04 0-.148 0-.445.148-.593.149-.149.149-.297.297-.446.594-.593 1.485-.593 2.078 0 .149.149.297.297.297.446 0 .148.149.297.149.593 0 .446-.149.743-.446 1.04-.296.296-.593.445-1.039.445zm5.937 0c-.149 0-.445 0-.594-.149-.148-.148-.297-.148-.445-.296-.297-.297-.445-.594-.445-1.04 0-.445.148-.742.445-1.039.148-.148.297-.296.445-.296.297-.149.742-.149 1.188 0 .148.148.297.148.445.296.297.297.445.594.445 1.04 0 .445-.148.742-.445 1.039-.297.296-.594.445-1.04.445zm-5.937-5.938c-.446 0-.743-.148-1.04-.445-.297-.297-.445-.594-.445-1.039 0-.445.148-.742.445-1.04.297-.296.89-.444 1.336-.444.149 0 .149 0 .297.148.149 0 .149.148.297.148l.148.149c.297.297.446.594.446 1.039 0 .445-.149.742-.446 1.039-.148 0-.148.148-.148.148-.148 0-.148.149-.297.149-.148 0-.148 0-.297.148h-.297zm5.937 0c-.445 0-.742-.148-1.04-.445-.296-.297-.444-.594-.444-1.039 0-.445.148-.742.445-1.04.148-.148.297-.296.445-.296.594-.297 1.188-.148 1.633.297.297.297.445.594.445 1.039 0 .445-.148.742-.445 1.04-.297.296-.594.444-1.04.444zm-5.937-5.937c-.446 0-.743-.149-1.04-.445-.297-.297-.445-.594-.445-1.04 0-.148 0-.445.148-.593.149-.149.149-.297.297-.446.594-.593 1.485-.593 2.078 0 .149.149.297.297.297.446 0 .148.149.297.149.593 0 .446-.149.743-.446 1.04-.148 0-.148.148-.148.148-.148 0-.148.148-.297.148-.148 0-.148 0-.297.149h-.297zm5.937 0c-.445 0-.742-.149-1.04-.446-.296-.296-.444-.593-.444-1.039 0-.445.148-.742.445-1.039.148-.148.297-.297.445-.297.594-.148 1.188-.148 1.633.297l.148.149c0 .148.149.148.149.297 0 .148 0 .148.148.297v.296c0 .446-.148.743-.445 1.04-.297.296-.594.445-1.04.445zm5.937 23.75c-.445 0-.742-.149-1.039-.445-.297-.297-.445-.594-.445-1.04 0-.445.148-.742.445-1.039.594-.593 1.485-.593 2.078 0 .297.297.446.594.446 1.04 0 .445-.149.742-.446 1.039-.296.296-.593.445-1.039.445zm0-5.937c-.445 0-.742-.15-1.039-.446-.297-.297-.445-.594-.445-1.039 0-.148 0-.445.148-.594.149-.148.149-.297.297-.445.594-.594 1.485-.594 2.078 0 .149.148.297.297.297.445 0 .149.149.297.149.594 0 .445-.149.742-.446 1.039-.296.297-.593.445-1.039.445zm0-5.938c-.445 0-.742-.149-1.039-.445-.297-.297-.445-.594-.445-1.04 0-.148 0-.445.148-.593.149-.149.149-.297.297-.446.594-.593 1.485-.593 2.078 0 .149.149.297.297.297.446 0 .148.149.297.149.593 0 .446-.149.743-.446 1.04-.296.296-.593.445-1.039.445zm0-5.938c-.445 0-.742-.148-1.039-.445-.297-.297-.445-.594-.445-1.039 0-.445.148-.742.445-1.04.594-.593 1.485-.593 2.078 0 .297.298.446.595.446 1.04 0 .445-.149.742-.446 1.039-.296.297-.593.445-1.039.445zm0-5.937c-.445 0-.742-.149-1.039-.445-.297-.297-.445-.594-.445-1.04 0-.445.148-.742.445-1.039.594-.593 1.485-.593 2.078 0 .297.297.446.594.446 1.04 0 .445-.149.742-.446 1.039-.296.296-.593.445-1.039.445zm5.938 23.75c-.445 0-.742-.149-1.04-.445-.296-.297-.445-.594-.445-1.04 0-.445.149-.742.446-1.039.594-.593 1.484-.593 2.078 0 .297.297.445.594.445 1.04 0 .445-.148.742-.445 1.039-.297.296-.594.445-1.04.445zm0-5.937c-.445 0-.742-.15-1.04-.446-.296-.297-.445-.594-.445-1.039 0-.445.149-.742.446-1.04.594-.593 1.484-.593 2.078 0 .297.298.445.595.445 1.04 0 .445-.148.742-.445 1.039-.297.297-.594.445-1.04.445zm0-5.938c-.445 0-.742-.149-1.04-.445-.296-.297-.445-.594-.445-1.04 0-.445.149-.742.446-1.039.594-.593 1.484-.593 2.078 0 .297.297.445.594.445 1.04 0 .445-.148.742-.445 1.039-.297.296-.594.445-1.04.445zm0-5.938c-.445 0-.742-.148-1.04-.445-.296-.297-.445-.594-.445-1.039 0-.148 0-.445.149-.594.148-.148.148-.297.297-.445.594-.594 1.484-.594 2.078 0 .148.148.297.297.297.445 0 .149.148.297.148.594 0 .445-.148.742-.445 1.039-.297.297-.594.445-1.04.445zm0-5.937c-.445 0-.742-.149-1.04-.445-.296-.297-.445-.594-.445-1.04 0-.445.149-.742.446-1.039.594-.593 1.484-.593 2.078 0 .297.297.445.594.445 1.04 0 .445-.148.742-.445 1.039-.297.296-.594.445-1.04.445zM37.11 37.11c-.446 0-.743-.15-1.04-.446-.297-.297-.445-.594-.445-1.039 0-.445.148-.742.445-1.04.594-.593 1.485-.593 2.078 0 .297.298.446.595.446 1.04 0 .445-.149.742-.446 1.039-.296.297-.593.445-1.039.445zm0-5.938c-.446 0-.743-.149-1.04-.445-.297-.297-.445-.594-.445-1.04 0-.445.148-.742.445-1.039.594-.593 1.485-.593 2.078 0 .297.297.446.594.446 1.04 0 .445-.149.742-.446 1.039-.296.296-.593.445-1.039.445zm0-5.938c-.446 0-.743-.148-1.04-.445-.297-.297-.445-.594-.445-1.039 0-.445.148-.742.445-1.04.594-.593 1.485-.593 2.078 0 .297.298.446.595.446 1.04 0 .445-.149.742-.446 1.039-.296.297-.593.445-1.039.445zm0-5.937c-.446 0-.743-.149-1.04-.445-.297-.297-.445-.594-.445-1.04 0-.445.148-.742.445-1.039.594-.593 1.485-.593 2.078 0 .297.297.446.594.446 1.04 0 .445-.149.742-.446 1.039-.296.296-.593.445-1.039.445zm5.937 5.937c-.445 0-.742-.148-1.04-.445-.296-.297-.444-.594-.444-1.039 0-.445.148-.742.445-1.04.594-.593 1.484-.593 2.078 0 .297.298.445.595.445 1.04 0 .445-.148.742-.445 1.039-.148 0-.148.148-.297.148 0 0-.148.149-.297.149-.148 0-.148 0-.297.148h-.148zm0-5.937c-.445 0-.742-.149-1.04-.445-.296-.297-.444-.594-.444-1.04 0-.148 0-.445.148-.593.148-.149.148-.297.297-.446.594-.593 1.484-.593 2.078 0 .148.149.297.297.297.446.148.148.148.445.148.593 0 .446-.148.743-.445 1.04-.297.296-.594.445-1.04.445zm5.937 5.937c-.445 0-.742-.148-1.039-.445-.297-.297-.445-.594-.445-1.039 0-.445.148-.742.445-1.04.594-.593 1.485-.593 2.078 0 .297.298.446.595.446 1.04 0 .445-.149.742-.446 1.039-.296.297-.593.445-1.039.445zm0-5.937c-.445 0-.742-.149-1.039-.445-.297-.297-.445-.594-.445-1.04 0-.148 0-.445.148-.593.149-.149.149-.297.297-.446.594-.593 1.485-.593 2.078 0 .149.149.297.297.297.446 0 .148.149.297.149.593 0 .446-.149.743-.446 1.04-.296.296-.593.445-1.039.445z" fill="#fff"/></svg>